<svg width="24" height="28" viewBox="0 0 24 28" fill="none" xmlns="http://www.w3.org/2000/svg">
<path fill-rule="evenodd" clip-rule="evenodd" d="M18.8293 2H19C21.7614 2 24 4.23858 24 7V23C24 25.7614 21.7614 28 19 28H5C2.23858 28 0 25.7614 0 23V7C0 4.23858 2.23858 2 5 2H5.17071C5.58254 0.834808 6.69378 0 8 0H16C17.3062 0 18.4175 0.834808 18.8293 2ZM5.17071 4H5C3.34315 4 2 5.34315 2 7V23C2 24.6569 3.34315 26 5 26H19C20.6569 26 22 24.6569 22 23V7C22 5.34315 20.6569 4 19 4H18.8293C18.4175 5.16519 17.3062 6 16 6H8C6.69378 6 5.58254 5.16519 5.17071 4ZM7 3C7 2.44772 7.44772 2 8 2H16C16.5523 2 17 2.44772 17 3C17 3.55228 16.5523 4 16 4H8C7.44772 4 7 3.55228 7 3Z" fill="#5050C5"/>
</svg>